<mxfile host="app.diagrams.net" modified="2021-03-02T11:13:40.599Z" agent="5.0 (Windows NT 10.0; Win64; x64) AppleWebKit/537.36 (KHTML, like Gecko) Chrome/88.0.4324.182 Safari/537.36" etag="t5brSntFqSiL4UnRAchO" version="14.4.3" type="github">
  <diagram id="prtHgNgQTEPvFCAcTncT" name="Page-1">
    <mxGraphModel dx="1422" dy="794" grid="1" gridSize="10" guides="1" tooltips="1" connect="1" arrows="1" fold="1" page="1" pageScale="1" pageWidth="827" pageHeight="1169" math="0" shadow="0">
      <root>
        <mxCell id="0" />
        <mxCell id="1" parent="0" />
        <mxCell id="dNxyNK7c78bLwvsdeMH5-19" value="GridDB Cloud workflow" style="swimlane;html=1;childLayout=stackLayout;resizeParent=1;resizeParentMax=0;horizontal=0;startSize=20;horizontalStack=0;" parent="1" vertex="1">
          <mxGeometry x="120" y="120" width="1880" height="490" as="geometry" />
        </mxCell>
        <mxCell id="dNxyNK7c78bLwvsdeMH5-38" style="edgeStyle=orthogonalEdgeStyle;rounded=0;orthogonalLoop=1;jettySize=auto;html=1;endArrow=classic;endFill=1;" parent="dNxyNK7c78bLwvsdeMH5-19" edge="1">
          <mxGeometry relative="1" as="geometry">
            <Array as="points">
              <mxPoint x="180" y="340" />
              <mxPoint x="400" y="340" />
            </Array>
            <mxPoint x="180" y="210" as="sourcePoint" />
          </mxGeometry>
        </mxCell>
        <mxCell id="7Ez9JlqMwkRRpGyR5oRL-40" style="edgeStyle=orthogonalEdgeStyle;rounded=0;orthogonalLoop=1;jettySize=auto;html=1;exitX=0;exitY=0.5;exitDx=0;exitDy=0;entryX=0.75;entryY=0;entryDx=0;entryDy=0;" parent="dNxyNK7c78bLwvsdeMH5-19" source="7Ez9JlqMwkRRpGyR5oRL-3" edge="1">
          <mxGeometry relative="1" as="geometry">
            <mxPoint x="622.5" y="285" as="targetPoint" />
          </mxGeometry>
        </mxCell>
        <mxCell id="7Ez9JlqMwkRRpGyR5oRL-41" style="edgeStyle=orthogonalEdgeStyle;rounded=0;orthogonalLoop=1;jettySize=auto;html=1;exitX=0.5;exitY=1;exitDx=0;exitDy=0;entryX=0.5;entryY=0;entryDx=0;entryDy=0;" parent="dNxyNK7c78bLwvsdeMH5-19" source="7Ez9JlqMwkRRpGyR5oRL-3" edge="1">
          <mxGeometry relative="1" as="geometry">
            <mxPoint x="816" y="285" as="targetPoint" />
          </mxGeometry>
        </mxCell>
        <mxCell id="7Ez9JlqMwkRRpGyR5oRL-43" style="edgeStyle=orthogonalEdgeStyle;rounded=0;orthogonalLoop=1;jettySize=auto;html=1;exitX=0.5;exitY=0;exitDx=0;exitDy=0;entryX=0.5;entryY=1;entryDx=0;entryDy=0;" parent="dNxyNK7c78bLwvsdeMH5-19" target="7Ez9JlqMwkRRpGyR5oRL-2" edge="1">
          <mxGeometry relative="1" as="geometry">
            <mxPoint x="585" y="285" as="sourcePoint" />
          </mxGeometry>
        </mxCell>
        <mxCell id="7Ez9JlqMwkRRpGyR5oRL-44" style="edgeStyle=orthogonalEdgeStyle;rounded=0;orthogonalLoop=1;jettySize=auto;html=1;exitX=0.5;exitY=1;exitDx=0;exitDy=0;" parent="dNxyNK7c78bLwvsdeMH5-19" source="7Ez9JlqMwkRRpGyR5oRL-11" edge="1">
          <mxGeometry relative="1" as="geometry">
            <mxPoint x="230" y="285" as="targetPoint" />
          </mxGeometry>
        </mxCell>
        <mxCell id="dNxyNK7c78bLwvsdeMH5-20" value="Customer" style="swimlane;html=1;startSize=20;horizontal=0;" parent="dNxyNK7c78bLwvsdeMH5-19" vertex="1">
          <mxGeometry x="20" width="1860" height="250" as="geometry" />
        </mxCell>
        <mxCell id="7Ez9JlqMwkRRpGyR5oRL-3" value="OK?" style="rhombus;whiteSpace=wrap;html=1;" parent="dNxyNK7c78bLwvsdeMH5-20" vertex="1">
          <mxGeometry x="756" y="140" width="80" height="80" as="geometry" />
        </mxCell>
        <mxCell id="7Ez9JlqMwkRRpGyR5oRL-21" value="&lt;font color=&quot;#000000&quot; style=&quot;background-color: rgb(255 , 255 , 255)&quot;&gt;6&lt;/font&gt;" style="ellipse;whiteSpace=wrap;html=1;aspect=fixed;labelBackgroundColor=#FF9933;fontColor=#CC6600;strokeColor=#0000FF;fillColor=#FFFFFF;" parent="dNxyNK7c78bLwvsdeMH5-20" vertex="1">
          <mxGeometry x="786" y="150" width="20" height="20" as="geometry" />
        </mxCell>
        <mxCell id="7Ez9JlqMwkRRpGyR5oRL-47" style="edgeStyle=orthogonalEdgeStyle;rounded=0;orthogonalLoop=1;jettySize=auto;html=1;exitX=1;exitY=0.5;exitDx=0;exitDy=0;entryX=0;entryY=0.5;entryDx=0;entryDy=0;" parent="dNxyNK7c78bLwvsdeMH5-20" source="dNxyNK7c78bLwvsdeMH5-23" target="7Ez9JlqMwkRRpGyR5oRL-11" edge="1">
          <mxGeometry relative="1" as="geometry" />
        </mxCell>
        <mxCell id="dNxyNK7c78bLwvsdeMH5-23" value="" style="ellipse;whiteSpace=wrap;html=1;" parent="dNxyNK7c78bLwvsdeMH5-20" vertex="1">
          <mxGeometry x="40" y="40" width="40" height="40" as="geometry" />
        </mxCell>
        <mxCell id="7Ez9JlqMwkRRpGyR5oRL-2" value="Reviewing" style="rounded=0;whiteSpace=wrap;html=1;fontFamily=Helvetica;fontSize=12;fontColor=#000000;align=center;" parent="dNxyNK7c78bLwvsdeMH5-20" vertex="1">
          <mxGeometry x="505" y="52.5" width="120" height="50" as="geometry" />
        </mxCell>
        <mxCell id="7Ez9JlqMwkRRpGyR5oRL-4" value="No" style="text;html=1;align=center;verticalAlign=middle;resizable=0;points=[];autosize=1;" parent="dNxyNK7c78bLwvsdeMH5-20" vertex="1">
          <mxGeometry x="726" y="160" width="30" height="20" as="geometry" />
        </mxCell>
        <mxCell id="7Ez9JlqMwkRRpGyR5oRL-6" value="Reviewing" style="rounded=0;whiteSpace=wrap;html=1;fontFamily=Helvetica;fontSize=12;fontColor=#000000;align=center;" parent="dNxyNK7c78bLwvsdeMH5-20" vertex="1">
          <mxGeometry x="1275" y="52.5" width="120" height="50" as="geometry" />
        </mxCell>
        <mxCell id="7Ez9JlqMwkRRpGyR5oRL-7" style="edgeStyle=orthogonalEdgeStyle;rounded=0;orthogonalLoop=1;jettySize=auto;html=1;exitX=1;exitY=0.5;exitDx=0;exitDy=0;entryX=0;entryY=0.5;entryDx=0;entryDy=0;" parent="dNxyNK7c78bLwvsdeMH5-20" source="7Ez9JlqMwkRRpGyR5oRL-8" target="7Ez9JlqMwkRRpGyR5oRL-18" edge="1">
          <mxGeometry relative="1" as="geometry">
            <mxPoint x="1588" y="92.5" as="targetPoint" />
          </mxGeometry>
        </mxCell>
        <mxCell id="7Ez9JlqMwkRRpGyR5oRL-8" value="OK?" style="rhombus;whiteSpace=wrap;html=1;" parent="dNxyNK7c78bLwvsdeMH5-20" vertex="1">
          <mxGeometry x="1458" y="37.5" width="80" height="80" as="geometry" />
        </mxCell>
        <mxCell id="7Ez9JlqMwkRRpGyR5oRL-5" style="edgeStyle=orthogonalEdgeStyle;rounded=0;orthogonalLoop=1;jettySize=auto;html=1;exitX=1;exitY=0.5;exitDx=0;exitDy=0;entryX=0;entryY=0.5;entryDx=0;entryDy=0;" parent="dNxyNK7c78bLwvsdeMH5-20" source="7Ez9JlqMwkRRpGyR5oRL-6" target="7Ez9JlqMwkRRpGyR5oRL-8" edge="1">
          <mxGeometry relative="1" as="geometry" />
        </mxCell>
        <mxCell id="7Ez9JlqMwkRRpGyR5oRL-9" value="Yes" style="text;html=1;align=center;verticalAlign=middle;resizable=0;points=[];autosize=1;" parent="dNxyNK7c78bLwvsdeMH5-20" vertex="1">
          <mxGeometry x="1538" y="77.5" width="40" height="20" as="geometry" />
        </mxCell>
        <mxCell id="7Ez9JlqMwkRRpGyR5oRL-10" value="&lt;font style=&quot;font-size: 9px&quot; color=&quot;#ff3333&quot;&gt;Close&lt;/font&gt;" style="text;html=1;align=center;verticalAlign=middle;resizable=0;points=[];autosize=1;" parent="dNxyNK7c78bLwvsdeMH5-20" vertex="1">
          <mxGeometry x="1770" y="55" width="40" height="20" as="geometry" />
        </mxCell>
        <mxCell id="7Ez9JlqMwkRRpGyR5oRL-11" value="Register new issue on Redmine" style="rounded=0;whiteSpace=wrap;html=1;fontFamily=Helvetica;fontSize=12;align=center;strokeColor=#36393d;fillColor=#FFFFFF;" parent="dNxyNK7c78bLwvsdeMH5-20" vertex="1">
          <mxGeometry x="150" y="35" width="120" height="50" as="geometry" />
        </mxCell>
        <mxCell id="7Ez9JlqMwkRRpGyR5oRL-12" value="&lt;font style=&quot;font-size: 9px&quot; color=&quot;#ff3333&quot;&gt;New&lt;/font&gt;" style="text;html=1;align=center;verticalAlign=middle;resizable=0;points=[];autosize=1;" parent="dNxyNK7c78bLwvsdeMH5-20" vertex="1">
          <mxGeometry x="90" y="35" width="30" height="20" as="geometry" />
        </mxCell>
        <mxCell id="7Ez9JlqMwkRRpGyR5oRL-14" value="" style="ellipse;whiteSpace=wrap;html=1;" parent="dNxyNK7c78bLwvsdeMH5-20" vertex="1">
          <mxGeometry x="1810" y="57.5" width="40" height="40" as="geometry" />
        </mxCell>
        <mxCell id="7Ez9JlqMwkRRpGyR5oRL-76" style="edgeStyle=orthogonalEdgeStyle;rounded=0;orthogonalLoop=1;jettySize=auto;html=1;exitX=1;exitY=0.5;exitDx=0;exitDy=0;entryX=0;entryY=0.5;entryDx=0;entryDy=0;" parent="dNxyNK7c78bLwvsdeMH5-20" source="7Ez9JlqMwkRRpGyR5oRL-18" target="7Ez9JlqMwkRRpGyR5oRL-14" edge="1">
          <mxGeometry relative="1" as="geometry" />
        </mxCell>
        <mxCell id="7Ez9JlqMwkRRpGyR5oRL-18" value="Accept merge request" style="rounded=0;whiteSpace=wrap;html=1;fontFamily=Helvetica;fontSize=12;fontColor=#000000;align=center;fillColor=#F0A30A;" parent="dNxyNK7c78bLwvsdeMH5-20" vertex="1">
          <mxGeometry x="1608" y="52.5" width="130" height="50" as="geometry" />
        </mxCell>
        <mxCell id="7Ez9JlqMwkRRpGyR5oRL-19" value="&lt;font color=&quot;#000000&quot; style=&quot;background-color: rgb(255 , 255 , 255)&quot;&gt;1&lt;/font&gt;" style="ellipse;whiteSpace=wrap;html=1;aspect=fixed;labelBackgroundColor=#FF9933;fontColor=#CC6600;strokeColor=#0000FF;fillColor=#FFFFFF;" parent="dNxyNK7c78bLwvsdeMH5-20" vertex="1">
          <mxGeometry x="150" y="62.5" width="20" height="20" as="geometry" />
        </mxCell>
        <mxCell id="7Ez9JlqMwkRRpGyR5oRL-20" value="&lt;font color=&quot;#000000&quot; style=&quot;background-color: rgb(255 , 255 , 255)&quot;&gt;5&lt;/font&gt;" style="ellipse;whiteSpace=wrap;html=1;aspect=fixed;labelBackgroundColor=#FF9933;fontColor=#CC6600;strokeColor=#0000FF;fillColor=#FFFFFF;" parent="dNxyNK7c78bLwvsdeMH5-20" vertex="1">
          <mxGeometry x="505" y="57.5" width="20" height="20" as="geometry" />
        </mxCell>
        <mxCell id="7Ez9JlqMwkRRpGyR5oRL-22" value="&lt;font color=&quot;#000000&quot; style=&quot;background-color: rgb(255 , 255 , 255)&quot;&gt;11&lt;/font&gt;" style="ellipse;whiteSpace=wrap;html=1;aspect=fixed;labelBackgroundColor=#FF9933;fontColor=#CC6600;strokeColor=#0000FF;fillColor=#FFFFFF;" parent="dNxyNK7c78bLwvsdeMH5-20" vertex="1">
          <mxGeometry x="1278" y="60" width="20" height="20" as="geometry" />
        </mxCell>
        <mxCell id="7Ez9JlqMwkRRpGyR5oRL-23" value="&lt;font color=&quot;#000000&quot; style=&quot;background-color: rgb(255 , 255 , 255)&quot;&gt;12&lt;/font&gt;" style="ellipse;whiteSpace=wrap;html=1;aspect=fixed;labelBackgroundColor=#FF9933;fontColor=#CC6600;strokeColor=#0000FF;fillColor=#FFFFFF;" parent="dNxyNK7c78bLwvsdeMH5-20" vertex="1">
          <mxGeometry x="1488" y="50" width="20" height="20" as="geometry" />
        </mxCell>
        <mxCell id="7Ez9JlqMwkRRpGyR5oRL-24" value="&lt;font color=&quot;#000000&quot; style=&quot;background-color: rgb(255 , 255 , 255)&quot;&gt;13&lt;/font&gt;" style="ellipse;whiteSpace=wrap;html=1;aspect=fixed;labelBackgroundColor=#FF9933;fontColor=#CC6600;strokeColor=#0000FF;fillColor=#FFFFFF;" parent="dNxyNK7c78bLwvsdeMH5-20" vertex="1">
          <mxGeometry x="1620" y="52.5" width="20" height="20" as="geometry" />
        </mxCell>
        <mxCell id="7Ez9JlqMwkRRpGyR5oRL-1" style="edgeStyle=orthogonalEdgeStyle;rounded=0;orthogonalLoop=1;jettySize=auto;html=1;exitX=1;exitY=0.5;exitDx=0;exitDy=0;fontColor=#CC6600;" parent="dNxyNK7c78bLwvsdeMH5-20" source="7Ez9JlqMwkRRpGyR5oRL-2" edge="1">
          <mxGeometry relative="1" as="geometry">
            <Array as="points">
              <mxPoint x="736" y="78" />
              <mxPoint x="796" y="78" />
            </Array>
            <mxPoint x="796" y="140" as="targetPoint" />
          </mxGeometry>
        </mxCell>
        <mxCell id="7Ez9JlqMwkRRpGyR5oRL-80" value="No" style="text;html=1;align=center;verticalAlign=middle;resizable=0;points=[];autosize=1;" parent="dNxyNK7c78bLwvsdeMH5-20" vertex="1">
          <mxGeometry x="1500" y="120" width="30" height="20" as="geometry" />
        </mxCell>
        <mxCell id="7Ez9JlqMwkRRpGyR5oRL-83" value="&lt;font style=&quot;font-size: 9px&quot; color=&quot;#ff3333&quot;&gt;In progress&lt;/font&gt;" style="text;html=1;align=center;verticalAlign=middle;resizable=0;points=[];autosize=1;" parent="dNxyNK7c78bLwvsdeMH5-20" vertex="1">
          <mxGeometry x="740" y="220" width="60" height="20" as="geometry" />
        </mxCell>
        <mxCell id="7Ez9JlqMwkRRpGyR5oRL-85" value="&lt;font style=&quot;font-size: 9px&quot; color=&quot;#ff3333&quot;&gt;Confirming&lt;/font&gt;" style="text;html=1;align=center;verticalAlign=middle;resizable=0;points=[];autosize=1;" parent="dNxyNK7c78bLwvsdeMH5-20" vertex="1">
          <mxGeometry x="1335" y="160" width="60" height="20" as="geometry" />
        </mxCell>
        <mxCell id="7Ez9JlqMwkRRpGyR5oRL-87" value="&lt;font style=&quot;font-size: 9px&quot; color=&quot;#ff3333&quot;&gt;Feedback&lt;/font&gt;" style="text;html=1;align=center;verticalAlign=middle;resizable=0;points=[];autosize=1;" parent="dNxyNK7c78bLwvsdeMH5-20" vertex="1">
          <mxGeometry x="1500" y="160" width="60" height="20" as="geometry" />
        </mxCell>
        <mxCell id="dNxyNK7c78bLwvsdeMH5-21" value="Developer" style="swimlane;html=1;startSize=20;horizontal=0;" parent="dNxyNK7c78bLwvsdeMH5-19" vertex="1">
          <mxGeometry x="20" y="250" width="1860" height="120" as="geometry" />
        </mxCell>
        <mxCell id="7Ez9JlqMwkRRpGyR5oRL-55" value="&amp;nbsp;Create new issue gitlab" style="rounded=0;whiteSpace=wrap;html=1;fontFamily=Helvetica;fontSize=12;fontColor=#000000;align=center;fillColor=#F0A30A;" parent="dNxyNK7c78bLwvsdeMH5-21" vertex="1">
          <mxGeometry x="490" y="35" width="150" height="50" as="geometry" />
        </mxCell>
        <mxCell id="7Ez9JlqMwkRRpGyR5oRL-57" value="Fix bug" style="rounded=0;whiteSpace=wrap;html=1;fontFamily=Helvetica;fontSize=12;fontColor=#000000;align=center;" parent="dNxyNK7c78bLwvsdeMH5-21" vertex="1">
          <mxGeometry x="760" y="35" width="80" height="50" as="geometry" />
        </mxCell>
        <mxCell id="7Ez9JlqMwkRRpGyR5oRL-59" value="Analysis bug" style="rounded=0;whiteSpace=wrap;html=1;fontFamily=Helvetica;fontSize=12;fontColor=#000000;align=center;" parent="dNxyNK7c78bLwvsdeMH5-21" vertex="1">
          <mxGeometry x="160" y="35" width="100" height="50" as="geometry" />
        </mxCell>
        <mxCell id="7Ez9JlqMwkRRpGyR5oRL-60" style="edgeStyle=orthogonalEdgeStyle;rounded=0;orthogonalLoop=1;jettySize=auto;html=1;exitX=1;exitY=0.5;exitDx=0;exitDy=0;fontColor=#000000;" parent="dNxyNK7c78bLwvsdeMH5-21" source="7Ez9JlqMwkRRpGyR5oRL-61" target="7Ez9JlqMwkRRpGyR5oRL-55" edge="1">
          <mxGeometry relative="1" as="geometry" />
        </mxCell>
        <mxCell id="7Ez9JlqMwkRRpGyR5oRL-61" value="Create investigation report" style="rounded=0;whiteSpace=wrap;html=1;fontFamily=Helvetica;fontSize=12;fontColor=#000000;align=center;" parent="dNxyNK7c78bLwvsdeMH5-21" vertex="1">
          <mxGeometry x="300" y="35" width="150" height="50" as="geometry" />
        </mxCell>
        <mxCell id="7Ez9JlqMwkRRpGyR5oRL-58" style="edgeStyle=orthogonalEdgeStyle;rounded=0;orthogonalLoop=1;jettySize=auto;html=1;exitX=1;exitY=0.5;exitDx=0;exitDy=0;entryX=0;entryY=0.5;entryDx=0;entryDy=0;fontColor=#000000;" parent="dNxyNK7c78bLwvsdeMH5-21" source="7Ez9JlqMwkRRpGyR5oRL-59" target="7Ez9JlqMwkRRpGyR5oRL-61" edge="1">
          <mxGeometry relative="1" as="geometry" />
        </mxCell>
        <mxCell id="7Ez9JlqMwkRRpGyR5oRL-62" value="Create merge request" style="rounded=0;whiteSpace=wrap;html=1;fontFamily=Helvetica;fontSize=12;fontColor=#000000;align=center;fillColor=#F0A30A;" parent="dNxyNK7c78bLwvsdeMH5-21" vertex="1">
          <mxGeometry x="1260" y="20" width="150" height="50" as="geometry" />
        </mxCell>
        <mxCell id="7Ez9JlqMwkRRpGyR5oRL-64" value="&lt;font color=&quot;#000000&quot; style=&quot;background-color: rgb(255 , 255 , 255)&quot;&gt;2&lt;/font&gt;" style="ellipse;whiteSpace=wrap;html=1;aspect=fixed;labelBackgroundColor=#FF9933;fontColor=#CC6600;strokeColor=#0000FF;fillColor=#FFFFFF;opacity=90;" parent="dNxyNK7c78bLwvsdeMH5-21" vertex="1">
          <mxGeometry x="230" y="35" width="20" height="20" as="geometry" />
        </mxCell>
        <mxCell id="7Ez9JlqMwkRRpGyR5oRL-65" value="&lt;font color=&quot;#000000&quot; style=&quot;background-color: rgb(255 , 255 , 255)&quot;&gt;3&lt;/font&gt;" style="ellipse;whiteSpace=wrap;html=1;aspect=fixed;labelBackgroundColor=#FF9933;fontColor=#CC6600;strokeColor=#0000FF;fillColor=#FFFFFF;" parent="dNxyNK7c78bLwvsdeMH5-21" vertex="1">
          <mxGeometry x="410" y="35" width="20" height="20" as="geometry" />
        </mxCell>
        <mxCell id="7Ez9JlqMwkRRpGyR5oRL-67" value="&lt;font color=&quot;#000000&quot; style=&quot;background-color: rgb(255 , 255 , 255)&quot;&gt;4&lt;/font&gt;" style="ellipse;whiteSpace=wrap;html=1;aspect=fixed;labelBackgroundColor=#FF9933;fontColor=#CC6600;strokeColor=#0000FF;fillColor=#FFFFFF;" parent="dNxyNK7c78bLwvsdeMH5-21" vertex="1">
          <mxGeometry x="500" y="35" width="20" height="20" as="geometry" />
        </mxCell>
        <mxCell id="7Ez9JlqMwkRRpGyR5oRL-68" value="&lt;font color=&quot;#000000&quot; style=&quot;background-color: rgb(255 , 255 , 255)&quot;&gt;7&lt;/font&gt;" style="ellipse;whiteSpace=wrap;html=1;aspect=fixed;labelBackgroundColor=#FF9933;fontColor=#CC6600;strokeColor=#0000FF;fillColor=#FFFFFF;" parent="dNxyNK7c78bLwvsdeMH5-21" vertex="1">
          <mxGeometry x="760" y="35" width="20" height="20" as="geometry" />
        </mxCell>
        <mxCell id="7Ez9JlqMwkRRpGyR5oRL-69" value="&lt;font color=&quot;#000000&quot; style=&quot;background-color: rgb(255 , 255 , 255)&quot;&gt;10&lt;/font&gt;" style="ellipse;whiteSpace=wrap;html=1;aspect=fixed;labelBackgroundColor=#FF9933;fontColor=#CC6600;strokeColor=#0000FF;fillColor=#FFFFFF;" parent="dNxyNK7c78bLwvsdeMH5-21" vertex="1">
          <mxGeometry x="1260" y="20" width="20" height="20" as="geometry" />
        </mxCell>
        <mxCell id="7Ez9JlqMwkRRpGyR5oRL-79" value="No" style="text;html=1;align=center;verticalAlign=middle;resizable=0;points=[];autosize=1;" parent="dNxyNK7c78bLwvsdeMH5-21" vertex="1">
          <mxGeometry x="1165" y="90" width="30" height="20" as="geometry" />
        </mxCell>
        <mxCell id="7Ez9JlqMwkRRpGyR5oRL-13" value="&lt;font style=&quot;font-size: 9px&quot; color=&quot;#ff3333&quot;&gt;Confirming&lt;/font&gt;" style="text;html=1;align=center;verticalAlign=middle;resizable=0;points=[];autosize=1;" parent="dNxyNK7c78bLwvsdeMH5-21" vertex="1">
          <mxGeometry x="800" y="100" width="60" height="20" as="geometry" />
        </mxCell>
        <mxCell id="7Ez9JlqMwkRRpGyR5oRL-15" value="&lt;font style=&quot;font-size: 9px&quot; color=&quot;#ff3333&quot;&gt;Feedback&lt;/font&gt;" style="text;html=1;align=center;verticalAlign=middle;resizable=0;points=[];autosize=1;" parent="dNxyNK7c78bLwvsdeMH5-21" vertex="1">
          <mxGeometry x="1101" y="15" width="60" height="20" as="geometry" />
        </mxCell>
        <mxCell id="dNxyNK7c78bLwvsdeMH5-22" value="Tester" style="swimlane;html=1;startSize=20;horizontal=0;" parent="dNxyNK7c78bLwvsdeMH5-19" vertex="1">
          <mxGeometry x="20" y="370" width="1860" height="120" as="geometry" />
        </mxCell>
        <mxCell id="7Ez9JlqMwkRRpGyR5oRL-48" value="OK?" style="rhombus;whiteSpace=wrap;html=1;" parent="dNxyNK7c78bLwvsdeMH5-22" vertex="1">
          <mxGeometry x="1125" y="15" width="80" height="80" as="geometry" />
        </mxCell>
        <mxCell id="7Ez9JlqMwkRRpGyR5oRL-49" value="&lt;font style=&quot;font-size: 9px&quot; color=&quot;#ff3333&quot;&gt;Feedback&lt;/font&gt;" style="text;html=1;align=center;verticalAlign=middle;resizable=0;points=[];autosize=1;" parent="dNxyNK7c78bLwvsdeMH5-22" vertex="1">
          <mxGeometry x="1000" y="35" width="60" height="20" as="geometry" />
        </mxCell>
        <mxCell id="7Ez9JlqMwkRRpGyR5oRL-50" style="edgeStyle=orthogonalEdgeStyle;rounded=0;orthogonalLoop=1;jettySize=auto;html=1;exitX=1;exitY=0.5;exitDx=0;exitDy=0;entryX=0;entryY=0.5;entryDx=0;entryDy=0;fontColor=#CC6600;" parent="dNxyNK7c78bLwvsdeMH5-22" source="7Ez9JlqMwkRRpGyR5oRL-51" target="7Ez9JlqMwkRRpGyR5oRL-48" edge="1">
          <mxGeometry relative="1" as="geometry" />
        </mxCell>
        <mxCell id="7Ez9JlqMwkRRpGyR5oRL-51" value="Testing" style="rounded=0;whiteSpace=wrap;html=1;fontFamily=Helvetica;fontSize=12;fontColor=#000000;align=center;" parent="dNxyNK7c78bLwvsdeMH5-22" vertex="1">
          <mxGeometry x="760" y="30" width="80" height="50" as="geometry" />
        </mxCell>
        <mxCell id="7Ez9JlqMwkRRpGyR5oRL-52" value="&lt;font color=&quot;#000000&quot; style=&quot;background-color: rgb(255 , 255 , 255)&quot;&gt;9&lt;/font&gt;" style="ellipse;whiteSpace=wrap;html=1;aspect=fixed;labelBackgroundColor=#FF9933;fontColor=#CC6600;strokeColor=#0000FF;fillColor=#FFFFFF;" parent="dNxyNK7c78bLwvsdeMH5-22" vertex="1">
          <mxGeometry x="1155" y="25" width="20" height="20" as="geometry" />
        </mxCell>
        <mxCell id="7Ez9JlqMwkRRpGyR5oRL-53" value="&lt;font color=&quot;#000000&quot; style=&quot;background-color: rgb(255 , 255 , 255)&quot;&gt;8&lt;/font&gt;" style="ellipse;whiteSpace=wrap;html=1;aspect=fixed;labelBackgroundColor=#FF9933;fontColor=#CC6600;strokeColor=#0000FF;fillColor=#FFFFFF;" parent="dNxyNK7c78bLwvsdeMH5-22" vertex="1">
          <mxGeometry x="820" y="30" width="20" height="20" as="geometry" />
        </mxCell>
        <mxCell id="7Ez9JlqMwkRRpGyR5oRL-54" value="Yes" style="text;html=1;align=center;verticalAlign=middle;resizable=0;points=[];autosize=1;" parent="dNxyNK7c78bLwvsdeMH5-22" vertex="1">
          <mxGeometry x="1210" y="30" width="40" height="20" as="geometry" />
        </mxCell>
        <mxCell id="7Ez9JlqMwkRRpGyR5oRL-84" value="&lt;font style=&quot;font-size: 9px&quot; color=&quot;#ff3333&quot;&gt;Feedback&lt;/font&gt;" style="text;html=1;align=center;verticalAlign=middle;resizable=0;points=[];autosize=1;" parent="dNxyNK7c78bLwvsdeMH5-22" vertex="1">
          <mxGeometry x="1270" y="30" width="60" height="20" as="geometry" />
        </mxCell>
        <mxCell id="7Ez9JlqMwkRRpGyR5oRL-73" style="edgeStyle=orthogonalEdgeStyle;rounded=0;orthogonalLoop=1;jettySize=auto;html=1;exitX=1;exitY=0.5;exitDx=0;exitDy=0;entryX=0.5;entryY=1;entryDx=0;entryDy=0;" parent="dNxyNK7c78bLwvsdeMH5-19" source="7Ez9JlqMwkRRpGyR5oRL-48" target="7Ez9JlqMwkRRpGyR5oRL-62" edge="1">
          <mxGeometry relative="1" as="geometry" />
        </mxCell>
        <mxCell id="7Ez9JlqMwkRRpGyR5oRL-75" style="edgeStyle=orthogonalEdgeStyle;rounded=0;orthogonalLoop=1;jettySize=auto;html=1;exitX=0.5;exitY=0;exitDx=0;exitDy=0;entryX=0.75;entryY=0;entryDx=0;entryDy=0;" parent="dNxyNK7c78bLwvsdeMH5-19" source="7Ez9JlqMwkRRpGyR5oRL-48" target="7Ez9JlqMwkRRpGyR5oRL-57" edge="1">
          <mxGeometry relative="1" as="geometry" />
        </mxCell>
        <mxCell id="7Ez9JlqMwkRRpGyR5oRL-78" style="edgeStyle=orthogonalEdgeStyle;rounded=0;orthogonalLoop=1;jettySize=auto;html=1;exitX=0.5;exitY=1;exitDx=0;exitDy=0;entryX=0.638;entryY=0.02;entryDx=0;entryDy=0;entryPerimeter=0;" parent="dNxyNK7c78bLwvsdeMH5-19" source="7Ez9JlqMwkRRpGyR5oRL-8" target="7Ez9JlqMwkRRpGyR5oRL-57" edge="1">
          <mxGeometry relative="1" as="geometry">
            <mxPoint x="880" y="310" as="targetPoint" />
            <Array as="points">
              <mxPoint x="1518" y="220" />
              <mxPoint x="831" y="220" />
            </Array>
          </mxGeometry>
        </mxCell>
        <mxCell id="7Ez9JlqMwkRRpGyR5oRL-82" style="edgeStyle=orthogonalEdgeStyle;rounded=0;orthogonalLoop=1;jettySize=auto;html=1;exitX=0.5;exitY=0;exitDx=0;exitDy=0;entryX=0.5;entryY=1;entryDx=0;entryDy=0;" parent="dNxyNK7c78bLwvsdeMH5-19" source="7Ez9JlqMwkRRpGyR5oRL-62" target="7Ez9JlqMwkRRpGyR5oRL-6" edge="1">
          <mxGeometry relative="1" as="geometry" />
        </mxCell>
        <mxCell id="_R2t6vXJeIPvffAA4Gln-1" style="edgeStyle=orthogonalEdgeStyle;rounded=0;orthogonalLoop=1;jettySize=auto;html=1;exitX=0.5;exitY=1;exitDx=0;exitDy=0;entryX=0.5;entryY=0;entryDx=0;entryDy=0;" parent="dNxyNK7c78bLwvsdeMH5-19" source="7Ez9JlqMwkRRpGyR5oRL-57" target="7Ez9JlqMwkRRpGyR5oRL-51" edge="1">
          <mxGeometry relative="1" as="geometry" />
        </mxCell>
        <mxCell id="7Ez9JlqMwkRRpGyR5oRL-88" value="&lt;font style=&quot;font-size: 11px&quot; color=&quot;#ff3333&quot;&gt;Confirming&lt;/font&gt;" style="text;html=1;align=center;verticalAlign=middle;resizable=0;points=[];autosize=1;" parent="1" vertex="1">
          <mxGeometry x="1800" y="640" width="70" height="20" as="geometry" />
        </mxCell>
        <mxCell id="7Ez9JlqMwkRRpGyR5oRL-89" value="Ticket status" style="text;html=1;align=center;verticalAlign=middle;resizable=0;points=[];autosize=1;" parent="1" vertex="1">
          <mxGeometry x="1880" y="640" width="80" height="20" as="geometry" />
        </mxCell>
        <mxCell id="7Ez9JlqMwkRRpGyR5oRL-90" value="" style="rounded=0;whiteSpace=wrap;html=1;fontFamily=Helvetica;fontSize=12;fontColor=#000000;align=center;fillColor=#F0A30A;" parent="1" vertex="1">
          <mxGeometry x="1810" y="680" width="50" height="20" as="geometry" />
        </mxCell>
        <mxCell id="7Ez9JlqMwkRRpGyR5oRL-91" value="Gitlab" style="text;html=1;align=center;verticalAlign=middle;resizable=0;points=[];autosize=1;" parent="1" vertex="1">
          <mxGeometry x="1880" y="680" width="50" height="20" as="geometry" />
        </mxCell>
        <mxCell id="7Ez9JlqMwkRRpGyR5oRL-92" value="&lt;font style=&quot;font-size: 14px&quot;&gt;--NOTE--&lt;/font&gt;" style="text;html=1;align=center;verticalAlign=middle;resizable=0;points=[];autosize=1;" parent="1" vertex="1">
          <mxGeometry x="1720" y="640" width="70" height="20" as="geometry" />
        </mxCell>
      </root>
    </mxGraphModel>
  </diagram>
</mxfile>
